<?xml version="1.0" encoding="UTF-8" standalone="no"?>
<!-- Generator: Adobe Illustrator 16.0.0, SVG Export Plug-In . SVG Version: 6.00 Build 0)  -->

<svg
   xmlns:dc="http://purl.org/dc/elements/1.1/"
   xmlns:cc="http://creativecommons.org/ns#"
   xmlns:rdf="http://www.w3.org/1999/02/22-rdf-syntax-ns#"
   xmlns:svg="http://www.w3.org/2000/svg"
   xmlns="http://www.w3.org/2000/svg"
   xmlns:sodipodi="http://sodipodi.sourceforge.net/DTD/sodipodi-0.dtd"
   xmlns:inkscape="http://www.inkscape.org/namespaces/inkscape"
   version="1.1"
   id="Capa_1"
   x="0px"
   y="0px"
   width="761.07104"
   height="396.01028"
   viewBox="0 0 761.07104 396.01027"
   xml:space="preserve"
   inkscape:version="0.91 r13725"
   sodipodi:docname="whitedb.svg"><metadata
     id="metadata42"><rdf:RDF><cc:Work
         rdf:about=""><dc:format>image/svg+xml</dc:format><dc:type
           rdf:resource="http://purl.org/dc/dcmitype/StillImage" /><dc:title></dc:title></cc:Work></rdf:RDF></metadata><defs
     id="defs40" /><sodipodi:namedview
     pagecolor="#ffffff"
     bordercolor="#666666"
     borderopacity="1"
     objecttolerance="10"
     gridtolerance="10"
     guidetolerance="10"
     inkscape:pageopacity="0"
     inkscape:pageshadow="2"
     inkscape:window-width="1510"
     inkscape:window-height="998"
     id="namedview38"
     showgrid="false"
     fit-margin-top="0"
     fit-margin-left="0"
     fit-margin-right="250"
     fit-margin-bottom="0"
     inkscape:zoom="0.68382344"
     inkscape:cx="652.78058"
     inkscape:cy="103.35278"
     inkscape:window-x="0"
     inkscape:window-y="0"
     inkscape:window-maximized="0"
     inkscape:current-layer="Capa_1" /><g
     id="g3"
     style="fill:#ffffff;stroke:#646464;stroke-width:23;stroke-miterlimit:4;stroke-dasharray:none;stroke-opacity:1"
     transform="translate(11.5,-46.026)"><g
       id="Layer_8_10_"
       style="fill:#ffffff;stroke:#646464;stroke-width:23;stroke-miterlimit:4;stroke-dasharray:none;stroke-opacity:1"><path
         d="m 238.986,244.034 c 0,6.895 -3.683,13.276 -9.654,16.723 L 28.958,427.954 c -5.971,3.452 -13.333,3.452 -19.306,0 C 3.68,424.5 0,418.13 0,411.23 L 0,76.832 c 0,-6.892 3.675,-13.27 9.652,-16.723 2.988,-1.723 6.321,-2.583 9.655,-2.583 3.341,0 6.663,0.864 9.655,2.583 l 200.379,167.2 c 5.963,3.45 9.645,9.828 9.645,16.725 z m 239.443,-16.72 -200.386,-167.2 c -2.978,-1.724 -6.312,-2.583 -9.651,-2.583 -3.339,0 -6.653,0.864 -9.654,2.583 -5.973,3.453 -9.652,9.825 -9.652,16.723 l 0,334.4 c 0,6.893 3.68,13.271 9.652,16.721 5.976,3.447 13.33,3.447 19.306,0 L 478.417,260.756 c 5.976,-3.441 9.654,-9.816 9.654,-16.717 0.009,-6.897 -3.679,-13.28 -9.642,-16.725 z"
         id="path6"
         style="fill:#ffffff;stroke:#646464;stroke-width:23;stroke-miterlimit:4;stroke-dasharray:none;stroke-opacity:1"
         inkscape:connector-curvature="0" /></g></g><g
     id="g8"
     transform="translate(11.5,-46.026)" /><g
     id="g10"
     transform="translate(11.5,-46.026)" /><g
     id="g12"
     transform="translate(11.5,-46.026)" /><g
     id="g14"
     transform="translate(11.5,-46.026)" /><g
     id="g16"
     transform="translate(11.5,-46.026)" /><g
     id="g18"
     transform="translate(11.5,-46.026)" /><g
     id="g20"
     transform="translate(11.5,-46.026)" /><g
     id="g22"
     transform="translate(11.5,-46.026)" /><g
     id="g24"
     transform="translate(11.5,-46.026)" /><g
     id="g26"
     transform="translate(11.5,-46.026)" /><g
     id="g28"
     transform="translate(11.5,-46.026)" /><g
     id="g30"
     transform="translate(11.5,-46.026)" /><g
     id="g32"
     transform="translate(11.5,-46.026)" /><g
     id="g34"
     transform="translate(11.5,-46.026)" /><g
     id="g36"
     transform="translate(11.5,-46.026)" /></svg>